<svg xmlns="http://www.w3.org/2000/svg" width="1200" height="720" viewBox="0 0 1200 720" role="img" aria-labelledby="title desc"><title id="title">Transistor cross sections: how the gate reaches the channel</title><desc id="desc">Cross sections normal to current compare a surface gate, a gate around three exposed fin faces, and a surrounding gate around stacked nanosheet channels.</desc><defs><marker id="arrow" markerWidth="10" markerHeight="10" refX="8" refY="3" orient="auto" markerUnits="strokeWidth"><path d="M0,0 L0,6 L9,3 z" fill="#17334a"/></marker></defs><rect width="1200" height="720" fill="white"/>
<text x="40" y="55" font-family="Arial, sans-serif" font-size="32" font-weight="700" fill="#17334a" text-anchor="start">Transistor cross sections: how the gate reaches the channel</text>
<text x="40" y="90" font-family="Arial, sans-serif" font-size="18" font-weight="400" fill="#506575" text-anchor="start">Conceptual schematic • not to scale • original illustration</text>
<text x="40" y="675" font-family="Arial, sans-serif" font-size="16" font-weight="400" fill="#506575" text-anchor="start">Source basis: HU-SCALING-001; IBM-NANOSHEET-001</text>
<text x="40" y="703" font-family="Arial, sans-serif" font-size="15" font-weight="400" fill="#506575" text-anchor="start">Semiconductor Manufacturing Knowledge Base • CC BY 4.0</text>
<text x="55" y="150" font-family="Arial, sans-serif" font-size="27" font-weight="700" fill="#17334a" text-anchor="start">Planar</text>
<text x="450" y="150" font-family="Arial, sans-serif" font-size="27" font-weight="700" fill="#17334a" text-anchor="start">FinFET</text>
<text x="845" y="150" font-family="Arial, sans-serif" font-size="27" font-weight="700" fill="#17334a" text-anchor="start">Nanosheet GAA</text>
<rect x="65" y="360" width="290" height="200" rx="0" fill="#d0e6ec" stroke="#17334a" stroke-width="2"/>
<rect x="95" y="335" width="230" height="25" rx="0" fill="#f2b562" stroke="#17334a" stroke-width="2"/>
<rect x="95" y="280" width="230" height="55" rx="0" fill="#3c66a0" stroke="#17334a" stroke-width="2"/>
<text x="120" y="425" font-family="Arial, sans-serif" font-size="22" font-weight="400" fill="#17334a" text-anchor="start">Silicon body</text>
<rect x="455" y="505" width="310" height="55" rx="0" fill="#d0e6ec" stroke="#17334a" stroke-width="2"/>
<rect x="535" y="275" width="150" height="230" rx="0" fill="#3c66a0" stroke="#17334a" stroke-width="2"/>
<rect x="558" y="298" width="104" height="207" rx="0" fill="#f2b562" stroke="#17334a" stroke-width="2"/>
<rect x="575" y="315" width="70" height="190" rx="0" fill="#d0e6ec" stroke="#17334a" stroke-width="2"/>
<rect x="455" y="505" width="120" height="18" rx="0" fill="#f2b562" stroke="#17334a" stroke-width="2"/>
<rect x="645" y="505" width="120" height="18" rx="0" fill="#f2b562" stroke="#17334a" stroke-width="2"/>
<rect x="890" y="230" width="240" height="325" rx="8" fill="#3c66a0" stroke="#17334a" stroke-width="2"/>
<rect x="916" y="280" width="188" height="55" rx="12" fill="#f2b562" stroke="#17334a" stroke-width="2"/>
<rect x="932" y="292" width="156" height="31" rx="8" fill="#d0e6ec" stroke="#17334a" stroke-width="2"/>
<rect x="916" y="365" width="188" height="55" rx="12" fill="#f2b562" stroke="#17334a" stroke-width="2"/>
<rect x="932" y="377" width="156" height="31" rx="8" fill="#d0e6ec" stroke="#17334a" stroke-width="2"/>
<rect x="916" y="450" width="188" height="55" rx="12" fill="#f2b562" stroke="#17334a" stroke-width="2"/>
<rect x="932" y="462" width="156" height="31" rx="8" fill="#d0e6ec" stroke="#17334a" stroke-width="2"/>
<text x="45" y="595" font-family="Arial, sans-serif" font-size="23" font-weight="400" fill="#17334a" text-anchor="start">Current: into / out of page</text>
<text x="45" y="630" font-family="Arial, sans-serif" font-size="19" font-weight="400" fill="#3c66a0" text-anchor="start">Conductor</text>
<rect x="157" y="613" width="30" height="20" rx="0" fill="#3c66a0" stroke="#17334a" stroke-width="2"/>
<text x="220" y="630" font-family="Arial, sans-serif" font-size="19" font-weight="400" fill="#a36314" text-anchor="start">Dielectric</text>
<rect x="323" y="613" width="30" height="20" rx="0" fill="#f2b562" stroke="#17334a" stroke-width="2"/>
<text x="390" y="630" font-family="Arial, sans-serif" font-size="19" font-weight="400" fill="#17334a" text-anchor="start">Silicon</text>
<rect x="465" y="613" width="30" height="20" rx="0" fill="#d0e6ec" stroke="#17334a" stroke-width="2"/></svg>
