<svg xmlns="http://www.w3.org/2000/svg" width="1200" height="720" viewBox="0 0 1200 720" role="img" aria-labelledby="title desc"><title id="title">Deposition: transport and reaction are different choices</title><desc id="desc">Three panels show directional sputtered flux, precursor reaction at a heated surface, and alternating ALD exposure and purge steps.</desc><defs><marker id="arrow" markerWidth="10" markerHeight="10" refX="8" refY="3" orient="auto" markerUnits="strokeWidth"><path d="M0,0 L0,6 L9,3 z" fill="#17334a"/></marker></defs><rect width="1200" height="720" fill="white"/>
<text x="40" y="55" font-family="Arial, sans-serif" font-size="32" font-weight="700" fill="#17334a" text-anchor="start">Deposition: transport and reaction are different choices</text>
<text x="40" y="90" font-family="Arial, sans-serif" font-size="18" font-weight="400" fill="#506575" text-anchor="start">Conceptual schematic • not to scale • original illustration</text>
<text x="40" y="675" font-family="Arial, sans-serif" font-size="16" font-weight="400" fill="#506575" text-anchor="start">Source basis: LESKER-PVD-001; ASM-FURNACE-001; ASM-ALD-001</text>
<text x="40" y="703" font-family="Arial, sans-serif" font-size="15" font-weight="400" fill="#506575" text-anchor="start">Semiconductor Manufacturing Knowledge Base • CC BY 4.0</text>
<text x="40" y="160" font-family="Arial, sans-serif" font-size="27" font-weight="700" fill="#17334a" text-anchor="start">Sputter PVD</text>
<text x="440" y="160" font-family="Arial, sans-serif" font-size="27" font-weight="700" fill="#17334a" text-anchor="start">Thermal CVD</text>
<text x="840" y="160" font-family="Arial, sans-serif" font-size="27" font-weight="700" fill="#17334a" text-anchor="start">ALD cycle</text>
<rect x="60" y="205" width="280" height="30" rx="0" fill="#3c66a0" stroke="#17334a" stroke-width="2"/>
<text x="115" y="195" font-family="Arial, sans-serif" font-size="21" font-weight="400" fill="#17334a" text-anchor="start">Target</text>
<line x1="95" y1="250" x2="120" y2="365" stroke="#17334a" stroke-width="3" marker-end="url(#arrow)"/>
<line x1="160" y1="250" x2="185" y2="365" stroke="#17334a" stroke-width="3" marker-end="url(#arrow)"/>
<line x1="225" y1="250" x2="250" y2="365" stroke="#17334a" stroke-width="3" marker-end="url(#arrow)"/>
<line x1="290" y1="250" x2="315" y2="365" stroke="#17334a" stroke-width="3" marker-end="url(#arrow)"/>
<rect x="65" y="400" width="275" height="40" rx="0" fill="#d0e6ec" stroke="#17334a" stroke-width="2"/>
<rect x="65" y="388" width="275" height="12" rx="0" fill="#f2b562" stroke="#17334a" stroke-width="2"/>
<text x="60" y="475" font-family="Arial, sans-serif" font-size="21" font-weight="400" fill="#17334a" text-anchor="start">Ejected target atoms</text>
<text x="60" y="515" font-family="Arial, sans-serif" font-size="21" font-weight="400" fill="#17334a" text-anchor="start">Feature geometry can</text>
<text x="60" y="543" font-family="Arial, sans-serif" font-size="21" font-weight="400" fill="#17334a" text-anchor="start">screen directional flux.</text>
<rect x="450" y="230" width="285" height="220" rx="8" fill="#f3f7fa" stroke="#17334a" stroke-width="2"/>
<rect x="475" y="395" width="235" height="35" rx="0" fill="#d0e6ec" stroke="#17334a" stroke-width="2"/>
<circle cx="495" cy="290" r="9" fill="#007c83"/>
<line x1="495" y1="315" x2="495" y2="380" stroke="#17334a" stroke-width="3" marker-end="url(#arrow)"/>
<circle cx="550" cy="290" r="9" fill="#007c83"/>
<line x1="550" y1="315" x2="550" y2="380" stroke="#17334a" stroke-width="3" marker-end="url(#arrow)"/>
<circle cx="605" cy="290" r="9" fill="#007c83"/>
<line x1="605" y1="315" x2="605" y2="380" stroke="#17334a" stroke-width="3" marker-end="url(#arrow)"/>
<circle cx="660" cy="290" r="9" fill="#007c83"/>
<line x1="660" y1="315" x2="660" y2="380" stroke="#17334a" stroke-width="3" marker-end="url(#arrow)"/>
<text x="470" y="485" font-family="Arial, sans-serif" font-size="21" font-weight="400" fill="#17334a" text-anchor="start">Gas → surface reaction</text>
<text x="450" y="525" font-family="Arial, sans-serif" font-size="21" font-weight="400" fill="#17334a" text-anchor="start">Temperature and transport</text>
<text x="450" y="553" font-family="Arial, sans-serif" font-size="21" font-weight="400" fill="#17334a" text-anchor="start">affect the resulting</text>
<text x="450" y="581" font-family="Arial, sans-serif" font-size="21" font-weight="400" fill="#17334a" text-anchor="start">film.</text>
<rect x="850" y="210" width="280" height="65" rx="8" fill="#f3f7fa" stroke="#17334a" stroke-width="2"/>
<text x="866" y="242" font-family="Arial, sans-serif" font-size="22" font-weight="400" fill="#17334a" text-anchor="start">A exposure</text>
<line x1="990" y1="275" x2="990" y2="287" stroke="#17334a" stroke-width="3" marker-end="url(#arrow)"/>
<rect x="850" y="295" width="280" height="65" rx="8" fill="#f3f7fa" stroke="#17334a" stroke-width="2"/>
<text x="866" y="327" font-family="Arial, sans-serif" font-size="22" font-weight="400" fill="#17334a" text-anchor="start">Purge</text>
<line x1="990" y1="360" x2="990" y2="372" stroke="#17334a" stroke-width="3" marker-end="url(#arrow)"/>
<rect x="850" y="380" width="280" height="65" rx="8" fill="#f3f7fa" stroke="#17334a" stroke-width="2"/>
<text x="866" y="412" font-family="Arial, sans-serif" font-size="22" font-weight="400" fill="#17334a" text-anchor="start">B exposure</text>
<line x1="990" y1="445" x2="990" y2="457" stroke="#17334a" stroke-width="3" marker-end="url(#arrow)"/>
<rect x="850" y="465" width="280" height="65" rx="8" fill="#f3f7fa" stroke="#17334a" stroke-width="2"/>
<text x="866" y="497" font-family="Arial, sans-serif" font-size="22" font-weight="400" fill="#17334a" text-anchor="start">Purge</text>
<text x="850" y="605" font-family="Arial, sans-serif" font-size="21" font-weight="400" fill="#17334a" text-anchor="start">Repeat calibrated cycles</text></svg>
