<svg xmlns="http://www.w3.org/2000/svg" width="1200" height="720" viewBox="0 0 1200 720" role="img" aria-labelledby="title desc"><title id="title">Etch: mask budget, direction and the final profile</title><desc id="desc">A mask protects the target film while ions and reactive species access an opening. A separate profile comparison distinguishes vertical removal from lateral undercut.</desc><defs><marker id="arrow" markerWidth="10" markerHeight="10" refX="8" refY="3" orient="auto" markerUnits="strokeWidth"><path d="M0,0 L0,6 L9,3 z" fill="#17334a"/></marker></defs><rect width="1200" height="720" fill="white"/>
<text x="40" y="55" font-family="Arial, sans-serif" font-size="32" font-weight="700" fill="#17334a" text-anchor="start">Etch: mask budget, direction and the final profile</text>
<text x="40" y="90" font-family="Arial, sans-serif" font-size="18" font-weight="400" fill="#506575" text-anchor="start">Conceptual schematic • not to scale • original illustration</text>
<text x="40" y="675" font-family="Arial, sans-serif" font-size="16" font-weight="400" fill="#506575" text-anchor="start">Source basis: LAM-ETCH-001; TUWIEN-BOSCH-001</text>
<text x="40" y="703" font-family="Arial, sans-serif" font-size="15" font-weight="400" fill="#506575" text-anchor="start">Semiconductor Manufacturing Knowledge Base • CC BY 4.0</text>
<text x="55" y="155" font-family="Arial, sans-serif" font-size="27" font-weight="700" fill="#17334a" text-anchor="start">RIE functional cross-section</text>
<rect x="70" y="480" width="455" height="75" rx="0" fill="#d0e6ec" stroke="#17334a" stroke-width="2"/>
<rect x="70" y="340" width="160" height="140" rx="0" fill="#f2b562" stroke="#17334a" stroke-width="2"/>
<rect x="365" y="340" width="160" height="140" rx="0" fill="#f2b562" stroke="#17334a" stroke-width="2"/>
<rect x="70" y="290" width="160" height="50" rx="0" fill="#ba4661" stroke="#17334a" stroke-width="2"/>
<rect x="365" y="290" width="160" height="50" rx="0" fill="#ba4661" stroke="#17334a" stroke-width="2"/>
<line x1="263" y1="185" x2="263" y2="460" stroke="#007c83" stroke-width="3" marker-end="url(#arrow)"/>
<line x1="297" y1="185" x2="297" y2="460" stroke="#007c83" stroke-width="3" marker-end="url(#arrow)"/>
<line x1="331" y1="185" x2="331" y2="460" stroke="#007c83" stroke-width="3" marker-end="url(#arrow)"/>
<text x="65" y="600" font-family="Arial, sans-serif" font-size="20" font-weight="400" fill="#17334a" text-anchor="start">Mask (pink) • target (gold) • underlayer (blue)</text>
<text x="630" y="155" font-family="Arial, sans-serif" font-size="27" font-weight="700" fill="#17334a" text-anchor="start">Profile comparison</text>
<rect x="650" y="260" width="480" height="120" rx="0" fill="#f2b562" stroke="#17334a" stroke-width="2"/>
<rect x="800" y="245" width="150" height="140" rx="0" fill="white" stroke="white" stroke-width="2"/>
<text x="670" y="420" font-family="Arial, sans-serif" font-size="22" font-weight="400" fill="#17334a" text-anchor="start">Directional removal: small lateral loss</text>
<rect x="650" y="475" width="480" height="105" rx="0" fill="#f2b562" stroke="#17334a" stroke-width="2"/>
<rect x="765" y="465" width="220" height="120" rx="0" fill="white" stroke="white" stroke-width="2"/>
<rect x="650" y="450" width="150" height="25" rx="0" fill="#ba4661" stroke="#17334a" stroke-width="2"/>
<rect x="950" y="450" width="180" height="25" rx="0" fill="#ba4661" stroke="#17334a" stroke-width="2"/>
<text x="670" y="620" font-family="Arial, sans-serif" font-size="21" font-weight="400" fill="#17334a" text-anchor="start">Undercut: removal extends beneath mask</text></svg>
